Coordinates
version=1
nRows=9
nColumns=24
inDegrees=yes

Units are S.I. units (second, meters, Newtons, ...)
Angles are in degrees.

endheader
time	pelvis_tilt	pelvis_list	pelvis_rotation	pelvis_tx	pelvis_ty	pelvis_tz	hip_flexion_r	hip_adduction_r	hip_rotation_r	knee_angle_r	ankle_angle_r	subtalar_angle_r	mtp_angle_r	hip_flexion_l	hip_adduction_l	hip_rotation_l	knee_angle_l	ankle_angle_l	subtalar_angle_l	mtp_angle_l	lumbar_extension	lumbar_bending	lumbar_rotation
      3.12000000	     59.25681848	     -1.47831364	     -4.58473742	      0.83244781	      1.06431447	     -0.22906020	     15.19859929	     -8.58306822	      7.91586193	    -67.59282511	     11.19180720	     27.99282868	      0.00000000	     10.75964495	     -4.82516647	     -8.23801591	    -65.56346170	      0.52824300	     -2.62401906	      0.00000000	      0.00000000	      0.00000000	      0.00000000
      3.13000000	     59.24986083	     -1.46983787	     -4.59430319	      0.83241485	      1.06436808	     -0.22904497	     15.24131432	     -8.61853205	      7.89182349	    -68.04130391	     11.09567478	     28.02979702	      0.00000000	     10.76214112	     -4.80458514	     -8.26260692	    -65.27955307	      0.50847056	     -2.62652250	      0.00000000	      0.00000000	      0.00000000	      0.00000000
      3.14000000	     59.24280261	     -1.46344930	     -4.60240306	      0.83238693	      1.06440802	     -0.22903529	     15.27680528	     -8.65510772	      7.88022841	    -68.41738529	     11.03820773	     28.06481004	      0.00000000	     10.76625615	     -4.78433514	     -8.27897198	    -65.00861308	      0.45625661	     -2.64359752	      0.00000000	      0.00000000	      0.00000000	      0.00000000
      3.15000000	     59.23700327	     -1.45927559	     -4.60858625	      0.83237844	      1.06440943	     -0.22904168	     15.30397731	     -8.69036808	      7.88037145	    -68.72001754	     11.02247391	     28.09695550	      0.00000000	     10.77020425	     -4.76344829	     -8.28922850	    -64.75505576	      0.37014628	     -2.66795531	      0.00000000	      0.00000000	      0.00000000	      0.00000000
      3.16000000	     59.23529439	     -1.45820332	     -4.61186860	      0.83237177	      1.06438900	     -0.22905549	     15.32218658	     -8.72395756	      7.89267102	    -68.94892373	     11.04537114	     28.12406092	      0.00000000	     10.77255251	     -4.74276604	     -8.29575702	    -64.52361577	      0.26187705	     -2.68960914	      0.00000000	      0.00000000	      0.00000000	      0.00000000
      3.17000000	     59.24020847	     -1.46033572	     -4.61190871	      0.83234890	      1.06436702	     -0.22906833	     15.32999494	     -8.75719083	      7.91817127	    -69.10398593	     11.09732881	     28.14340851	      0.00000000	     10.77230598	     -4.72487940	     -8.30031805	    -64.31763277	      0.15751132	     -2.69763553	      0.00000000	      0.00000000	      0.00000000	      0.00000000
      3.18000000	     59.25243781	     -1.46418666	     -4.60952768	      0.83231612	      1.06434481	     -0.22907959	     15.32533798	     -8.79127090	      7.95719468	    -69.18509610	     11.16407673	     28.15216107	      0.00000000	     10.76837054	     -4.71257341	     -8.30385683	    -64.13669306	      0.09409568	     -2.68187842	      0.00000000	      0.00000000	      0.00000000	      0.00000000
      3.19000000	     59.27010992	     -1.46831479	     -4.60581154	      0.83228693	      1.06432428	     -0.22907918	     15.30746395	     -8.82592629	      8.00845756	    -69.19278590	     11.23014082	     28.14728160	      0.00000000	     10.75843061	     -4.70646600	     -8.30686014	    -63.97490734	      0.11168681	     -2.63475413	      0.00000000	      0.00000000	      0.00000000	      0.00000000
      3.20000000	     59.28929888	     -1.47265266	     -4.60129352	      0.83226396	      1.06433432	     -0.22905792	     15.27891864	     -8.85887649	      8.06903956	    -69.12923799	     11.28276983	     28.12532184	      0.00000000	     10.73839529	     -4.70412264	     -8.30925867	    -63.82143313	      0.24178874	     -2.55335786	      0.00000000	      0.00000000	      0.00000000	      0.00000000
